/vscmnt/brussel_pixiu_data/_data_brussel/112/vsc11236/PredSimResults/SUBJ04opt3D/worker_13.mot
version=1
nRows=5
nColumns=50
inDegrees=yes
endheader
                time	         pelvis_tilt	         pelvis_list	     pelvis_rotation	           pelvis_tx	           pelvis_ty	           pelvis_tz	       hip_flexion_r	     hip_adduction_r	      hip_rotation_r	        knee_angle_r	       ankle_angle_r	         mtp_angle_r	       hip_flexion_l	     hip_adduction_l	      hip_rotation_l	        knee_angle_l	       ankle_angle_l	         mtp_angle_l	    lumbar_extension	      lumbar_bending	     lumbar_rotation	 ercspn_r/activation	 intobl_r/activation	 extobl_r/activation	    abd_r/activation	    add_r/activation	hamstrings_r/activation	bifemsh_r/activation	glut_max_r/activation	iliopsoas_r/activation	rect_fem_r/activation	  vasti_r/activation	gastroc_r/activation	 soleus_r/activation	tib_ant_r/activation	 ercspn_l/activation	 intobl_l/activation	 extobl_l/activation	    abd_l/activation	    add_l/activation	hamstrings_l/activation	bifemsh_l/activation	glut_max_l/activation	iliopsoas_l/activation	rect_fem_l/activation	  vasti_l/activation	gastroc_l/activation	 soleus_l/activation	tib_ant_l/activation	
          2.00000002	        -17.65862051	         -6.01857948	          9.97796247	          3.60000004	          0.84808268	         -0.02227637	         45.43119266	         -1.09946188	          3.91890991	        -14.27687660	          0.64625052	          0.21177657	          1.61662789	         -4.42800370	          8.27596287	        -19.35411360	          4.76295120	         42.41381641	         -1.27860867	          3.03855572	         -1.50918453	          0.25036124	          0.04904362	          0.00999999	          0.02590819	          0.25920464	          0.08838007	          0.27744478	          0.09611264	          0.11899077	          0.04213988	          0.01138225	          0.10359397	          0.01333332	          0.38908952	          0.21005420	          0.29886320	          0.00999999	          0.09265931	          0.03160491	          0.09988715	          0.42417720	          0.05244668	          0.55360774	          0.01386351	          0.00999999	          0.28895998	          0.29028163	          0.02580676	
          2.02000002	        -17.18598075	         -5.69683537	         10.49477597	          3.64553869	          0.84568833	         -0.02036451	         45.40189016	         -0.39118273	          4.48291402	        -20.82869859	          1.56003236	          0.16843495	          1.50261987	         -4.43935147	          7.16823002	        -24.76859994	          1.05698321	         44.66841449	         -0.67927737	          2.74729262	         -1.40310303	          0.18777093	          0.03678271	          0.00999999	          0.13330836	          0.34859530	          0.08606984	          0.20808358	          0.16718830	          0.08924308	          0.03160491	          0.00999999	          0.07769548	          0.00999999	          0.37251445	          0.22629212	          0.22414740	          0.00999999	          0.06949448	          0.02370368	          0.07491536	          0.31813290	          0.03933501	          0.69897766	          0.01039764	          0.00999999	          0.21671998	          0.21771122	          0.01935507	
          2.04000002	        -16.62337130	         -5.40011008	         10.97970040	          3.69054822	          0.84364470	         -0.01790999	         45.26494582	          0.43077246	          5.01520727	        -27.45912008	          3.73152325	          0.69879996	          3.23403574	         -4.51768591	          5.80325909	        -33.20787074	         -3.31936324	         43.95445558	         -0.23689538	          2.36165953	         -1.05004126	          0.17372719	          0.02758703	          0.00999999	          0.30005056	          0.39784367	          0.06455238	          0.15606269	          0.56244855	          0.06693231	          0.02370368	          0.09593833	          0.05827161	          0.16642158	          0.27938584	          0.36258282	          0.16811055	          0.00999999	          0.05212086	          0.01777776	          0.05618652	          0.23859967	          0.02950125	          0.68422542	          0.00999999	          0.00999999	          0.16253999	          0.16328341	          0.01451630	
          2.06000002	        -15.98862030	         -5.03304908	         11.39661117	          3.73414519	          0.84336008	         -0.01521877	         44.52412351	          1.11485534	          5.19885679	        -33.25435089	          7.42608182	          3.41798547	          6.53563258	         -4.88216031	          3.52062101	        -43.13719032	        -10.01403758	         40.05778879	         -0.03781299	          1.82856433	         -0.51240811	          0.13029539	          0.02069028	          0.00999999	          0.44817595	          0.29838275	          0.09997887	          0.11704701	          0.42183641	          0.05019923	          0.01777776	          0.31138614	          0.13338678	          0.32713164	          0.20953938	          0.32169495	          0.12608291	          0.00999999	          0.03909065	          0.01333332	          0.04213989	          0.18079150	          0.02212594	          0.51316906	          0.22710081	          0.00999999	          0.12190499	          0.12246256	          0.01088723	
          2.08000002	        -15.40872841	         -4.61149165	         11.76543504	          3.77599423	          0.84599057	         -0.01252750	         42.27738311	          1.62201900	          5.37299720	        -35.91770942	          9.86634942	          7.05089504	         10.72075987	         -5.89164511	          0.50411256	        -52.06422380	        -19.42214498	         32.80651204	          0.00940204	          1.17071270	          0.10226161	          0.09772154	          0.01551771	          0.00999999	          0.48406583	          0.22378706	          0.10570404	          0.08778526	          0.31637731	          0.03764942	          0.01333332	          0.54716475	          0.21215105	          0.45323979	          0.15715453	          0.32668825	          0.15115170	          0.21914765	          0.02931798	          0.00999999	          0.03160492	          0.37705561	          0.01659446	          0.38487680	          0.42287807	          0.00999999	          0.09142874	          0.09184692	          0.03357869	
